<svg viewBox="0 0 512 512" xmlns="http://www.w3.org/2000/svg">
  <path d="M51.326 185.85h90.01v270.872h-90.01V185.85zM96.934 55.278C66.127 55.278 46 75.503 46 102.048c0 26 19.538 46.814 49.756 46.814h.574c31.396 0 50.948-20.814 50.948-46.813-.59-26.547-19.55-46.772-50.344-46.772zm265.405 124.21c-47.78 0-69.185 26.28-81.126 44.71V185.85h-90.038c1.192 25.41 0 270.872 0 270.872h90.038V305.448c0-8.102.59-16.174 2.958-21.978 6.52-16.174 21.333-32.923 46.182-32.923 32.602 0 45.622 24.85 45.622 61.248V456.72H466V301.4c0-83.2-44.402-121.91-103.66-121.91z"/>
</svg>
